<svg xmlns="http://www.w3.org/2000/svg" width="60" height="60" viewBox="0 0 60 60">
    <defs>
        <style>
            .prefix__cls-1{fill:#13294b}
        </style>
    </defs>
    <g id="prefix__Freshen" transform="translate(-3645 -361)">
        <g id="prefix__Group_21827" data-name="Group 21827" transform="translate(3657.657 373.992)">
            <path id="prefix__Path_47360" d="M1446.771 3954.774v.048l-.031-.048s.352 8.669-.2 8.873-.707-8.873-.707-8.873l-.031.048v-.048a25.846 25.846 0 0 0-2.85 5.429 10.418 10.418 0 0 0-.176 6.99 1.678 1.678 0 0 0 .261.495 1.128 1.128 0 0 0 1.176.282 7.968 7.968 0 0 0 1.166-.532 1.615 1.615 0 0 1 1.815 0 7.928 7.928 0 0 0 1.165.532 1.13 1.13 0 0 0 1.177-.282 1.666 1.666 0 0 0 .26-.495 10.42 10.42 0 0 0-.176-6.99 25.779 25.779 0 0 0-2.85-5.429" class="prefix__cls-1" data-name="Path 47360" transform="translate(-1429.698 -3934.007)"/>
            <path id="prefix__Path_47361" d="M1483.435 3931.4a1.7 1.7 0 0 1 0-1.906 8.339 8.339 0 0 0 .559-1.225 1.187 1.187 0 0 0-.3-1.237 1.8 1.8 0 0 0-.518-.273 10.961 10.961 0 0 0-7.346.187 27.085 27.085 0 0 0-5.7 2.994s.029.036 0 .055c0 0 6.959-.1 6.959.393s-6.96.568-6.96.568a27.137 27.137 0 0 0 5.7 2.994 10.95 10.95 0 0 0 7.346.186 1.761 1.761 0 0 0 .518-.274 1.184 1.184 0 0 0 .3-1.235 8.321 8.321 0 0 0-.559-1.226" class="prefix__cls-1" data-name="Path 47361" transform="translate(-1449.363 -3913.854)"/>
            <path id="prefix__Path_47362" d="M1406.969 3934.665a24.2 24.2 0 0 0 5.086-2.67s-5.453-.094-5.519-.452 5.519-.453 5.519-.453a24.161 24.161 0 0 0-5.086-2.669 9.768 9.768 0 0 0-6.55-.166 1.558 1.558 0 0 0-.462.245 1.056 1.056 0 0 0-.265 1.1 7.522 7.522 0 0 0 .5 1.092 1.512 1.512 0 0 1 0 1.7 7.433 7.433 0 0 0-.5 1.092 1.055 1.055 0 0 0 .265 1.1 1.561 1.561 0 0 0 .462.244 9.763 9.763 0 0 0 6.55-.165" class="prefix__cls-1" data-name="Path 47362" transform="translate(-1399.643 -3914.954)"/>
            <path id="prefix__Path_47363" d="M1468.93 3899.566c.3.377-4.91 4.64-4.91 4.64.026-.006.031.031.031.031a26.473 26.473 0 0 0 6.013-1.873 10.709 10.709 0 0 0 5.207-4.949 1.751 1.751 0 0 0 .17-.549 1.16 1.16 0 0 0-.649-1.06 8.12 8.12 0 0 0-1.234-.459 1.657 1.657 0 0 1-1.318-1.319 8.173 8.173 0 0 0-.46-1.233 1.158 1.158 0 0 0-1.06-.65 1.734 1.734 0 0 0-.548.17 10.707 10.707 0 0 0-4.95 5.207 26.5 26.5 0 0 0-1.873 6.013s5.283-4.347 5.581-3.97" class="prefix__cls-1" data-name="Path 47363" transform="translate(-1444.579 -3889.827)"/>
            <path id="prefix__Path_47364" d="M1422.041 3947.455a24.172 24.172 0 0 0-5.483 1.708 9.766 9.766 0 0 0-4.749 4.514 1.582 1.582 0 0 0-.155.5 1.059 1.059 0 0 0 .593.967 7.529 7.529 0 0 0 1.124.418 3.538 3.538 0 0 1 .786.417 3.49 3.49 0 0 1 .416.786 7.451 7.451 0 0 0 .419 1.125 1.06 1.06 0 0 0 .966.592 1.618 1.618 0 0 0 .5-.155 9.768 9.768 0 0 0 4.514-4.749 24.171 24.171 0 0 0 1.708-5.483s-3.862 3.274-4.1 3.091 3.455-3.731 3.455-3.731" class="prefix__cls-1" data-name="Path 47364" transform="translate(-1408.114 -3928.844)"/>
            <path id="prefix__Path_47365" d="M1412.261 3901.987a27.793 27.793 0 0 0 6.311 1.965s.007-.057.049-.048c0 0-6.618-6.262-6.268-6.712s6.956 6.024 6.956 6.024a27.816 27.816 0 0 0-1.966-6.311 11.24 11.24 0 0 0-5.2-5.466 1.857 1.857 0 0 0-.575-.177 1.216 1.216 0 0 0-1.112.682 8.559 8.559 0 0 0-.483 1.293 1.737 1.737 0 0 1-1.383 1.385 8.661 8.661 0 0 0-1.295.482 1.218 1.218 0 0 0-.682 1.113 1.855 1.855 0 0 0 .179.575 11.239 11.239 0 0 0 5.464 5.195" class="prefix__cls-1" data-name="Path 47365" transform="translate(-1404.56 -3889.205)"/>
            <path id="prefix__Path_47366" d="M1473.312 3953.305a9.767 9.767 0 0 0-4.748-4.514 24.225 24.225 0 0 0-5.484-1.708s5.187 4.373 4.622 4.937-5.262-4.3-5.262-4.3a24.132 24.132 0 0 0 1.708 5.484 9.767 9.767 0 0 0 4.513 4.748 1.572 1.572 0 0 0 .5.155 1.059 1.059 0 0 0 .966-.592 7.526 7.526 0 0 0 .419-1.125 1.512 1.512 0 0 1 1.2-1.2 7.613 7.613 0 0 0 1.125-.418 1.061 1.061 0 0 0 .592-.967 1.576 1.576 0 0 0-.155-.5" class="prefix__cls-1" data-name="Path 47366" transform="translate(-1443.939 -3928.582)"/>
            <path id="prefix__Path_47367" d="M1450.187 3885.063a1.6 1.6 0 0 0-.244-.462 1.057 1.057 0 0 0-1.1-.265 7.572 7.572 0 0 0-1.091.5 1.51 1.51 0 0 1-1.7 0 7.628 7.628 0 0 0-1.092-.5 1.056 1.056 0 0 0-1.1.265 1.6 1.6 0 0 0-.244.462 9.764 9.764 0 0 0 .165 6.55 24.174 24.174 0 0 0 2.67 5.084s-.158-6.213.452-6.2.453 6.2.453 6.2a24.167 24.167 0 0 0 2.67-5.084 9.765 9.765 0 0 0 .165-6.55" class="prefix__cls-1" data-name="Path 47367" transform="translate(-1430.31 -3884.286)"/>
        </g>
        <path id="prefix__Path_47123" d="M1386.685 3900.191a30 30 0 1 1 30-30 30 30 0 0 1-30 30zm0-58.2a28.2 28.2 0 1 0 28.2 28.2 28.232 28.232 0 0 0-28.2-28.2z" class="prefix__cls-1" data-name="Path 47123" transform="translate(2288.315 -3479.191)"/>
    </g>
</svg>
