<svg xmlns="http://www.w3.org/2000/svg" width="50" height="50" viewBox="0 0 50 50">
    <defs>
        <style>
            .prefix__cls-1{fill:#13294b}
        </style>
    </defs>
    <g id="prefix__Liquid_Conditioners-2" data-name="Liquid Conditioners-2" transform="translate(-3700.56 4235.84)">
        <path id="prefix__Path_47123" d="M3725.56-4235.84a25 25 0 0 0-25 25 25 25 0 0 0 25 25 25.026 25.026 0 0 0 25-25 25 25 0 0 0-25-25zm0 48.5a23.5 23.5 0 0 1-23.5-23.5 23.5 23.5 0 0 1 23.5-23.5 23.445 23.445 0 0 1 16.61 6.892 23.452 23.452 0 0 1 6.89 16.61 23.5 23.5 0 0 1-23.5 23.498z" class="prefix__cls-1" data-name="Path 47123"/>
        <path id="prefix__Path_47626" d="M3799.866-4132.255s-3.143 4.936-3.861 8.347a54.07 54.07 0 0 0-.9 8.975h-1.079a54.062 54.062 0 0 0-.9-8.975c-.718-3.411-3.856-8.347-3.856-8.347z" class="prefix__cls-1" data-name="Path 47626" transform="translate(-66.934 -78.152)"/>
        <g id="prefix__Group_22174" data-name="Group 22174" transform="translate(3716.389 -4227.531)">
            <path id="prefix__Path_47627" d="M3787.581-4191.242V-4190.674c0 .061 0 .126-.01.193-.009.2-.028.389-.047.581-.009.052-.014.1-.019.16-.028.2-.056.4-.094.6-.015.061-.024.117-.038.178s-.023.122-.037.183-.028.118-.038.174l-.056.211-.042.169c-.07.24-.146.479-.23.714-.014.051-.037.1-.056.154l-.084.225c-.019.047-.038.094-.061.146-.094.229-.2.459-.31.68-.028.057-.057.108-.084.159l-.084.165c-.061.107-.122.216-.183.319 0 .009-.014.019-.019.028-.057.1-.118.2-.178.291a1.819 1.819 0 0 1-.1.159c-.065.1-.136.2-.207.3-.033.047-.065.094-.1.136 0 0 0 .01-.01.014-.037.052-.075.1-.112.15s-.075.1-.113.145-.061.075-.089.113c-.01.009-.019.024-.028.033-.038.047-.075.094-.117.141-.08.094-.16.188-.244.282-.075.079-.15.164-.225.243a.137.137 0 0 0-.028.024c-.047.052-.094.1-.146.15-.1.1-.2.192-.3.291-.192.174-.39.347-.6.512s-.413.318-.628.469c-.146.1-.291.2-.441.291-.122.075-.239.15-.361.221-.061.033-.122.07-.188.1-.108.061-.22.117-.333.178.253-.727.53-1.464.826-2.2.066-.047.131-.1.2-.15a.089.089 0 0 1 .023-.019c.065-.056.131-.107.2-.164h.009c.061-.056.126-.107.188-.164l.033-.033c.046-.042.094-.084.14-.131.019-.014.038-.033.061-.052l.136-.136.042-.042.108-.108c.033-.033.062-.062.089-.094.075-.08.15-.165.226-.249l.107-.122.014-.014.15-.183.042-.057.1-.131a.443.443 0 0 0 .057-.071c.033-.042.07-.094.1-.141a.721.721 0 0 0 .056-.08 1.994 1.994 0 0 0 .127-.183c.08-.112.15-.226.221-.342.023-.038.047-.075.065-.113.042-.07.085-.141.122-.211.014-.019.023-.042.038-.065l.1-.184a.073.073 0 0 0 .009-.023c.038-.071.07-.141.1-.207a.074.074 0 0 0 .019-.033 1.078 1.078 0 0 1 .052-.107l.056-.127a.915.915 0 0 0 .051-.122l.084-.2a1.157 1.157 0 0 0 .052-.136c.023-.056.047-.112.066-.173l.042-.118c.014-.038.028-.089.042-.131l.042-.127c.023-.07.042-.141.061-.211.033-.112.066-.226.094-.342.009-.033.014-.071.023-.1.015-.061.028-.117.038-.173a1.85 1.85 0 0 0 .042-.221l.042-.229.028-.188v-.014c0-.023.009-.052.014-.08 0-.061.014-.126.019-.192s.014-.136.023-.207a.275.275 0 0 1 0-.061c0-.057.009-.117.009-.179v-.098c.005-.061.005-.122.01-.183v-.45a.551.551 0 0 0 0-.085v-.07c-.005-.1-.01-.192-.019-.286a9.711 9.711 0 0 0-9.815-8.849 9.713 9.713 0 0 0-9.83 8.947v.089c-.01.15-.01.3-.01.459v.244c0 .061 0 .126.01.188v.117c0 .065.01.136.014.2s.014.146.023.22.01.127.019.188l.014.084v.028l.028.174c.009.08.028.159.042.234s.023.126.038.192a.636.636 0 0 0 .019.094 1.338 1.338 0 0 0 .033.136c0 .023.009.052.014.076.014.047.023.094.038.14l.028.113v.009l.042.16.07.216.056.169a.793.793 0 0 0 .033.094c.042.126.089.253.141.375.019.042.033.08.051.122.071.164.141.323.221.483l.056.108c0 .009.01.023.014.033.028.057.061.117.094.173a.617.617 0 0 0 .052.094.889.889 0 0 0 .066.118.843.843 0 0 0 .051.094c.038.061.075.126.118.192s.094.15.146.225.089.136.136.2l.028.042c.047.062.089.127.136.188s.108.141.165.211.094.117.141.173c.019.028.042.052.061.075a1.6 1.6 0 0 0 .118.132.12.12 0 0 0 .033.037c.042.052.084.1.131.146a.6.6 0 0 0 .052.057c.052.061.108.117.164.173.126.127.253.249.385.371.066.061.131.117.2.178s.126.1.188.154a.255.255 0 0 1 .038.033l.188.145c.3.751.577 1.5.835 2.234 0 0-.01-.01-.014-.01l-.235-.126c-.08-.042-.164-.089-.244-.136s-.131-.08-.192-.117c-.033-.019-.061-.038-.094-.056-.066-.038-.127-.08-.193-.122s-.126-.084-.187-.127c-.089-.061-.178-.122-.268-.187-.051-.038-.1-.07-.146-.108l-.112-.084a1.964 1.964 0 0 1-.183-.146c-.1-.075-.192-.155-.286-.235l-.014-.014c-.089-.075-.178-.155-.263-.229-.113-.108-.225-.211-.333-.319s-.216-.221-.319-.333c-.127-.136-.249-.272-.366-.413-.037-.047-.075-.089-.112-.136-.038-.052-.075-.1-.112-.146s-.075-.1-.113-.146-.065-.084-.094-.127a.112.112 0 0 1-.019-.023c-.141-.2-.281-.4-.413-.6-.032-.051-.065-.1-.1-.16-.061-.1-.122-.206-.183-.314 0 0 0-.009-.009-.014-.028-.047-.051-.1-.08-.15s-.057-.108-.089-.159-.052-.108-.08-.165c-.084-.164-.16-.333-.235-.507-.023-.056-.051-.113-.075-.168s-.047-.113-.07-.174c-.014-.042-.033-.084-.047-.127-.094-.249-.178-.5-.253-.75l-.042-.146c0-.014 0-.023-.009-.033-.019-.061-.033-.122-.047-.183-.033-.122-.061-.239-.089-.366-.014-.061-.023-.122-.038-.183l-.028-.141-.042-.253-.028-.164c-.009-.056-.014-.127-.023-.192s-.014-.126-.023-.187c-.009-.108-.023-.216-.028-.328a1.128 1.128 0 0 1-.01-.127 1.068 1.068 0 0 1-.009-.122c0-.062 0-.127-.009-.192s0-.117 0-.179v-.38-.187-.155c0-.055 0-.08.01-.123a.309.309 0 0 1 0-.065c0-.117.014-.229.028-.343a1.237 1.237 0 0 1 .014-.14c0-.056.009-.113.019-.169s.014-.107.023-.164v-.009c.01-.051.014-.1.023-.155l.028-.164c.038-.225.084-.441.136-.662.014-.047.023-.1.038-.15a11.04 11.04 0 0 1 5.4-6.859l.155-.084c.051-.028.1-.052.155-.08.211-.108.422-.207.638-.3l.165-.07c.108-.047.216-.089.329-.131l.333-.122a.064.064 0 0 0 .028-.01c.047-.014.094-.032.141-.047.113-.037.23-.07.343-.107.056-.015.117-.033.174-.047s.122-.033.188-.052.108-.028.159-.038c.089-.023.179-.042.268-.061l.268-.057c.056-.014.117-.023.178-.032.127-.023.258-.042.39-.062.051-.01.1-.014.154-.023l.136-.014.094-.014.136-.014.183-.014.408-.028H3776.835l.408.028.183.014.136.014.094.014.136.014c.052.01.1.014.155.023.131.019.263.038.389.062.061.009.122.019.178.032s.122.023.178.038c.122.023.24.047.357.079.052.01.108.023.16.038s.126.033.188.052.117.032.174.047q.26.076.521.169l.159.056.15.056c.118.042.235.089.347.136l.15.065c.1.043.2.085.3.132.038.019.071.038.108.052.188.094.371.188.554.286a11.268 11.268 0 0 1 3.382 2.848 10.757 10.757 0 0 1 1.994 3.941c.01.042.019.084.033.126s.014.057.019.085.019.08.028.117c.047.2.089.413.126.619 0 .033.01.062.014.089.023.146.042.292.061.437 0 .047.009.09.014.137.009.089.019.183.023.276s.014.169.019.253c-.001.118.008.254.008.395z" class="prefix__cls-1" data-name="Path 47627" transform="translate(-3765.028 4202)"/>
        </g>
        <path id="prefix__Path_47628" d="M3753.145-4193.3c-2.782 3.213-7.18 9.215-.269 17.5a9.219 9.219 0 0 1-6.592-6.527 9.53 9.53 0 0 1 .324-5.649c1.372-3.703 4.319-4.624 6.537-5.324z" class="prefix__cls-1" data-name="Path 47628" transform="translate(-34.283 -32.094)"/>
    </g>
</svg>
