<svg xmlns="http://www.w3.org/2000/svg" width="50.001" height="50.002" viewBox="0 0 50.001 50.002">
    <defs>
        <style>
            .prefix__cls-1{fill:#13294b}
        </style>
    </defs>
    <g id="prefix__Liquid_Conditioners-1" data-name="Liquid Conditioners-1" transform="translate(-3002.253 663.002)">
        <path id="prefix__Path_47520" d="M3145.811-545.418a1.186 1.186 0 0 1-.264-.007c-.071-.01-.021-.019 0-.024a1.587 1.587 0 0 0 1.084-.875 1.546 1.546 0 0 0-.162-1.433 1.206 1.206 0 0 0-.905-.4.13.13 0 0 1-.068-.02 1.29 1.29 0 0 0-.381-.162c-.049-.021 0-.057.018-.069a1.553 1.553 0 0 1 .987-.295 1.431 1.431 0 0 1 1.327.985 1.84 1.84 0 0 1-1.63 2.3zm-.215-1.872a.169.169 0 0 1-.215.091c-.137-.09-.017-.376.185-.384h.023a.4.4 0 0 1 .007.291zm-.376 1.771s-.434-.1-.747-.785a1.265 1.265 0 0 1 .166-1.28c.049-.066.058-.043.046.018a1.025 1.025 0 0 0-.018.218.78.78 0 0 0 .927.857c.722-.2.541-1.315-.105-1.192a.383.383 0 0 0-.269.532.258.258 0 0 0 .372.071.389.389 0 0 0 .139-.306.5.5 0 0 0-.007-.1c0-.074.086.044.086.044a.475.475 0 0 1-.5.749c-.286-.076-.411-.464-.4-.707a.555.555 0 0 1 .531-.56.941.941 0 0 1 1.027.934 1.524 1.524 0 0 1-1.071 1.475zm-.284.077a2.417 2.417 0 0 1-.458-.112 1.454 1.454 0 0 1-.991-1.9 1.357 1.357 0 0 1 1.74-.722c.043.014.045.044 0 .055A1.478 1.478 0 0 0 3144.1-547a1.526 1.526 0 0 0 .835 1.533.016.016 0 0 1 0 .025zm2.769-2.448a1.537 1.537 0 0 0-1.454-.991 2.2 2.2 0 0 0-1.386.479 1.959 1.959 0 0 0-1.171.267 1.506 1.506 0 0 0-.574 1.417c.231 1.585 2.2 1.365 2.217 1.368a1.973 1.973 0 0 0 2.368-2.54z" class="prefix__cls-1" data-name="Path 47520" transform="translate(-105.888 -85.793)"/>
        <path id="prefix__Path_47521" d="M3047.076-604.817v.442h-3.656v-.442a.471.471 0 0 1 .472-.472h-.015v-.784a1.156 1.156 0 0 1 1.157-1.157h.427a1.157 1.157 0 0 1 1.159 1.157v.784h-.015a.471.471 0 0 1 .471.472z" class="prefix__cls-1" data-name="Path 47521" transform="translate(-30.948 -41.927)"/>
        <path id="prefix__Path_47522" d="M3042.882-589.435a8.954 8.954 0 0 0-4-4.284.688.688 0 0 0-.683-.63h-2.628a.678.678 0 0 0-.484.2.687.687 0 0 0-.2.487h.018a10.727 10.727 0 0 0-1.961 2.969 6.222 6.222 0 0 0-.571 2.857v9.142c0 1.827 0 2.626 1.83 2.626h8.226c1.256 0 1.484-.8 1.484-2.74v-6.17a10.261 10.261 0 0 0-1.031-4.457zm-.343 9.941c0 1.256-.571 1.6-1.373 1.6h-5.711a1.52 1.52 0 0 1-1.715-1.6v-5.6c0-1.142.688-3.428 2.628-3.314s2.058 1.484 2.628 3.2a4.517 4.517 0 0 0 2.515 2.971c.8.228 1.027.685 1.027 1.028zm-1.6-5.371c-1.142-1.484-1.941-4.113-1.712-4.912.114-.8 1.712-.687 2.286.571a24.832 24.832 0 0 1 1.255 3.314c.114.569-.343 2.282-1.83 1.026z" class="prefix__cls-1" data-name="Path 47522" transform="translate(-22.64 -51.61)"/>
        <path id="prefix__Path_47523" d="M3142.566-606.692v2.169h-3.656v-2.4c.229-.345 1.37.228 1.37.228 1.03-.571 2.058-.571 2.286.003z" class="prefix__cls-1" data-name="Path 47523" transform="translate(-102.736 -42.008)"/>
        <path id="prefix__Path_47524" d="M3142.163-589.214a7.916 7.916 0 0 0-4.123-4.969 1.233 1.233 0 0 0-1.224-1.087h-2.559a1.229 1.229 0 0 0-.871.362 1.227 1.227 0 0 0-.36.814c-.3.407-.6.8-.8 1.109-.229.343-.114.457 0 .685a7.561 7.561 0 0 1 .914 3.884 45.822 45.822 0 0 1-.914 4.8 9.448 9.448 0 0 0 .571 5.94c.228.457.114 1.03 1.484 1.03h6.627c.571 0 1.141-.688 1.37-1.715a15.768 15.768 0 0 0-.343-5.942s.98-3.027.228-4.911zm-2.854 10.969a4.508 4.508 0 0 1-4.572-.228c-1.941-1.37-1.484-4.684-1.37-5.141s.457-2.286.571-2.971.263-1.417.343-2.286c0-.685.343-1.142 1.373-.685 1.484.685 4.341 4.8 4.912 5.942a4.808 4.808 0 0 1 .571 2.512 3.216 3.216 0 0 1-1.828 2.857zm.8-7.883c-.343-.8-1.6-2.857-1.715-3.885s.114-1.487.571-1.487a5.649 5.649 0 0 1 2.4 4.572c-.115 2.512-.915 1.599-1.257.8z" class="prefix__cls-1" data-name="Path 47524" transform="translate(-97.535 -50.919)"/>
        <path id="prefix__Path_47525" d="M3144.638-569.71a5.074 5.074 0 0 0-2.055.228 1.959 1.959 0 0 1-1.373.114l.228-1.715c.114-.685.114-1.142 1.144-.571a8.387 8.387 0 0 1 2.056 1.944z" class="prefix__cls-1" data-name="Path 47525" transform="translate(-104.465 -68.479)"/>
        <g id="prefix__Group_22112" data-name="Group 22112" transform="translate(3025.063 -640.427)">
            <path id="prefix__Path_47526" d="M3097.3-568.915v2.129h-1.04v-2.129h-2.116v-1.015h2.116v-2.129h1.04v2.129h2.116v1.015z" class="prefix__cls-1" data-name="Path 47526" transform="translate(-3094.145 572.059)"/>
        </g>
        <g id="prefix__Ellipse_830" fill="none" data-name="Ellipse 830" transform="translate(3002.254 -663)">
            <circle id="prefix__Ellipse_847" cx="25" cy="25" r="25" data-name="Ellipse 847"/>
            <circle id="prefix__Ellipse_848" cx="24.197" cy="24.197" r="24.197" stroke="#123152" stroke-width="1.5px" data-name="Ellipse 848" transform="translate(.749 .748)"/>
        </g>
    </g>
</svg>
