<svg xmlns="http://www.w3.org/2000/svg" width="60" height="60" viewBox="0 0 60 60">
    <defs>
        <style>
            .prefix__cls-1{fill:#13294b}
        </style>
    </defs>
    <g id="prefix__Softens" transform="translate(-1266.264 -439.618)">
        <path id="prefix__Path_47123" d="M1296.263 499.618a30 30 0 1 1 30-30 30.034 30.034 0 0 1-30 30zm0-58.2a28.2 28.2 0 1 0 28.2 28.2 28.232 28.232 0 0 0-28.2-28.201z" class="prefix__cls-1" data-name="Path 47123"/>
        <path id="prefix__Path_47124" d="M1311.831 479.9a28.657 28.657 0 0 1-2.632 6.153 44.677 44.677 0 0 1-3.746 5.605c-.723.862-1.418 1.757-2.2 2.573-.385.412-.756.843-1.156 1.243l-1.209 1.19c-.4.405-.815.787-1.243 1.157l-1.273 1.128c-.867.731-1.768 1.419-2.655 2.132a1.2 1.2 0 1 1-1.506-1.873c.027-.022.055-.043.084-.062l.065-.043c.9-.6 1.83-1.186 2.725-1.812l1.319-.972c.445-.319.88-.65 1.3-1l1.269-1.042c.421-.351.813-.732 1.222-1.1.828-.721 1.574-1.524 2.354-2.3a43.739 43.739 0 0 0 4.144-5.137 28.382 28.382 0 0 0 3.138-5.84z" class="prefix__cls-1" data-name="Path 47124" transform="translate(-11.008 -16.125)"/>
        <path id="prefix__Path_47125" d="M1308.288 486.817a24.489 24.489 0 0 1-7.1-1.214l-.146-.059c-.07-.035-6.893-3.64-4.493-11.262 1-3.179 3.439-4.592 6.262-6.229 3.829-2.219 8.593-4.98 11.68-13.682l.862-2.427.838 2.435c.3.883 7.342 21.7-.235 29.537a10.192 10.192 0 0 1-7.668 2.901zm-6.488-2.909c5.98 1.819 10.308 1.4 12.864-1.242 5.4-5.586 2.172-19.608.567-25.273-3.279 7.443-7.809 10.068-11.516 12.217-2.6 1.508-4.658 2.7-5.449 5.212a7.5 7.5 0 0 0 3.534 9.086z" class="prefix__cls-1" data-name="Path 47125" transform="translate(-11.919 -4.934)"/>
        <path id="prefix__Path_47126" d="M1305.767 481.7a9.93 9.93 0 0 0-.349 1.22 10.4 10.4 0 0 0-.213 1.288 5.372 5.372 0 0 0 .288 2.611 5.807 5.807 0 0 1-1.186-2.545 11.53 11.53 0 0 1-.238-1.419 11.672 11.672 0 0 1-.074-1.473z" class="prefix__cls-1" data-name="Path 47126" transform="translate(-15.103 -16.72)"/>
        <path id="prefix__Path_47127" d="M1321.568 496.17a5.53 5.53 0 0 0 1.995-.746 10.725 10.725 0 0 0 1.716-1.237 17.433 17.433 0 0 0 1.5-1.476l.684-.8.648-.831 1.32 1.222-.86.727-.891.688a18.537 18.537 0 0 1-1.9 1.213 11.381 11.381 0 0 1-2.045.907 5.726 5.726 0 0 1-2.167.333z" class="prefix__cls-1" data-name="Path 47127" transform="translate(-22.138 -20.599)"/>
    </g>
</svg>
